<?xml version="1.0" encoding="UTF-8" standalone="no"?><svg xmlns="http://www.w3.org/2000/svg" xmlns:xlink="http://www.w3.org/1999/xlink" contentScriptType="application/ecmascript" contentStyleType="text/css" height="164px" preserveAspectRatio="none" style="width:244px;height:164px;" version="1.1" viewBox="0 0 244 164" width="244px" zoomAndPan="magnify"><defs><filter height="300%" id="f1rkt6jjz6lhr5" width="300%" x="-1" y="-1"><feGaussianBlur result="blurOut" stdDeviation="2.0"/><feColorMatrix in="blurOut" result="blurOut2" type="matrix" values="0 0 0 0 0 0 0 0 0 0 0 0 0 0 0 0 0 0 .4 0"/><feOffset dx="4.0" dy="4.0" in="blurOut2" result="blurOut3"/><feBlend in="SourceGraphic" in2="blurOut3" mode="normal"/></filter></defs><g><!--cluster de.gematik.ti.utils.streams--><polygon fill="#FFFFFF" filter="url(#f1rkt6jjz6lhr5)" points="22,24,212,24,219,47.6094,222,47.6094,222,152,22,152,22,24" style="stroke: #000000; stroke-width: 1.5;"/><line style="stroke: #000000; stroke-width: 1.5;" x1="22" x2="219" y1="47.6094" y2="47.6094"/><text fill="#000000" font-family="sans-serif" font-size="14" font-weight="bold" lengthAdjust="spacingAndGlyphs" textLength="184" x="26" y="40.5332">de.gematik.ti.utils.streams</text><!--class StreamUtils--><rect fill="#FEFECE" filter="url(#f1rkt6jjz6lhr5)" height="75.6719" id="StreamUtils" style="stroke: #A80036; stroke-width: 1.5;" width="109" x="67.5" y="60"/><ellipse cx="87.9" cy="76" fill="#ADD1B2" rx="11" ry="11" style="stroke: #A80036; stroke-width: 1.0;"/><path d="M89.9,72.5 Q90.1031,72 90.3375,71.75 Q90.5719,71.5 90.8375,71.5 Q91.3063,71.5 91.6031,71.7813 Q91.9,72.0625 91.9,72.7188 L91.9,74.2813 Q91.9,74.9375 91.6188,75.2188 Q91.3375,75.5 90.9,75.5 Q90.5094,75.5 90.2594,75.3281 Q90.0094,75.1563 89.9,74.7031 Q89.8531,74.3906 89.6813,74.2188 Q89.3688,73.8906 88.8063,73.7031 Q88.2438,73.5 87.6813,73.5 Q86.9781,73.5 86.3844,73.7813 Q85.8063,74.0625 85.3531,74.6875 Q84.9,75.3125 84.9,76.1719 L84.9,77.0938 Q84.9,78.125 85.7438,78.8125 Q86.5875,79.5 88.0875,79.5 Q88.9781,79.5 89.6031,79.2969 Q89.9625,79.1875 90.3688,78.8281 Q90.6344,78.625 90.775,78.5625 Q90.9156,78.5 91.0875,78.5 Q91.4156,78.5 91.65,78.7656 Q91.9,79.0156 91.9,79.375 Q91.9,79.7188 91.5563,80.125 Q91.0563,80.7188 90.2594,81.0469 Q89.2125,81.5 87.9313,81.5 Q86.4313,81.5 85.2281,80.9063 Q84.2594,80.4375 83.5719,79.4219 Q82.9,78.4063 82.9,77.2031 L82.9,76.1094 Q82.9,74.8594 83.4938,73.7656 Q84.1031,72.6719 85.15,72.0938 Q86.2125,71.5 87.4,71.5 Q88.1188,71.5 88.7438,71.75 Q89.3688,72 89.9,72.5 Z "/><text fill="#000000" font-family="sans-serif" font-size="12" lengthAdjust="spacingAndGlyphs" textLength="65" x="103.1" y="80.9102">StreamUtils</text><line style="stroke: #A80036; stroke-width: 1.5;" x1="68.5" x2="175.5" y1="92" y2="92"/><line style="stroke: #A80036; stroke-width: 1.5;" x1="68.5" x2="175.5" y1="100" y2="100"/><ellipse cx="78.5" cy="112.418" fill="#84BE84" rx="3" ry="3" style="stroke: #038048; stroke-width: 1.0;"/><text fill="#000000" font-family="sans-serif" font-size="11" lengthAdjust="spacingAndGlyphs" textLength="75" x="87.5" y="115.4189">wrapFunction()</text><ellipse cx="78.5" cy="126.2539" fill="#84BE84" rx="3" ry="3" style="stroke: #038048; stroke-width: 1.0;"/><text fill="#000000" font-family="sans-serif" font-size="11" lengthAdjust="spacingAndGlyphs" textLength="83" x="87.5" y="129.2549">wrapConsumer()</text><!--
@startuml



  package de.gematik.ti.utils.streams {
    class StreamUtils {
        + wrapFunction()
        + wrapConsumer()
    }
  }











@enduml

PlantUML version 1.2019.06(Fri May 24 19:10:25 CEST 2019)
(APACHE source distribution)
Java Runtime: OpenJDK Runtime Environment
JVM: OpenJDK 64-Bit Server VM
Java Version: 11.0.4+10-b304.69
Operating System: Windows 7
OS Version: 6.1
Default Encoding: Cp1252
Language: de
Country: DE
--></g></svg>